<svg
  xmlns="http://www.w3.org/2000/svg"
  width="19"
  height="22"
  viewBox="0 0 19 22"
  fill="none"
>
<path
    d="M13.0556 13.9954C13.5164 15.4224 13.7491 16.6716 13.7491 17.7487C13.7491 20.1474 12.81 21.9961 11.2491 21.9961C10.4023 21.9961 10.1402 21.4919 9.81233 20.2493C9.82947 20.3142 9.64944 19.6153 9.59675 19.4281C9.49581 19.0693 9.32002 18.4586 9.06973 17.597C9.06304 17.574 9.05318 17.5522 9.04035 17.5321L6.17359 13.0465C5.49554 11.9855 4.49507 11.17 3.31919 10.7198L2.06196 10.2385C1.26859 9.93471 0.807967 9.10503 0.969682 8.27103L1.65584 4.73236C1.82298 3.87037 2.47629 3.18436 3.32909 2.97534L11.5786 0.953411C14.1098 0.333019 16.6682 1.86795 17.3121 4.39328L18.886 10.566C19.2612 12.0377 18.3723 13.5349 16.9007 13.9102C16.6786 13.9668 16.4504 13.9954 16.2212 13.9954H13.0556Z"
    fill="#FF9916"
  />
</svg>
