<svg width="24" height="35" viewBox="0 0 24 35" fill="none" xmlns="http://www.w3.org/2000/svg">
<path d="M6.60156 17.4016L13.8766 13.9016L17.3766 6.62656L10.1016 10.1266L6.60156 17.4016ZM12.0016 13.0016C11.7182 13.0016 11.4807 12.9057 11.2891 12.7141C11.0974 12.5224 11.0016 12.2849 11.0016 12.0016C11.0016 11.7182 11.0974 11.4807 11.2891 11.2891C11.4807 11.0974 11.7182 11.0016 12.0016 11.0016C12.2849 11.0016 12.5224 11.0974 12.7141 11.2891C12.9057 11.4807 13.0016 11.7182 13.0016 12.0016C13.0016 12.2849 12.9057 12.5224 12.7141 12.7141C12.5224 12.9057 12.2849 13.0016 12.0016 13.0016ZM12.0016 22.1516C10.6182 22.1516 9.30573 21.8849 8.06406 21.3516C6.8224 20.8182 5.74323 20.0932 4.82656 19.1766C3.9099 18.2599 3.1849 17.1849 2.65156 15.9516C2.11823 14.7182 1.85156 13.4016 1.85156 12.0016C1.85156 10.6016 2.11823 9.28073 2.65156 8.03906C3.1849 6.7974 3.9099 5.7224 4.82656 4.81406C5.74323 3.90573 6.81823 3.1849 8.05156 2.65156C9.2849 2.11823 10.6016 1.85156 12.0016 1.85156C13.4016 1.85156 14.7224 2.11823 15.9641 2.65156C17.2057 3.1849 18.2807 3.90573 19.1891 4.81406C20.0974 5.7224 20.8182 6.79323 21.3516 8.02656C21.8849 9.2599 22.1516 10.5849 22.1516 12.0016C22.1516 13.4016 21.8849 14.7182 21.3516 15.9516C20.8182 17.1849 20.0974 18.2599 19.1891 19.1766C18.2807 20.0932 17.2099 20.8182 15.9766 21.3516C14.7432 21.8849 13.4182 22.1516 12.0016 22.1516ZM12.0016 20.4516C14.3516 20.4516 16.3474 19.6266 17.9891 17.9766C19.6307 16.3266 20.4516 14.3349 20.4516 12.0016C20.4516 9.65156 19.6307 7.65573 17.9891 6.01406C16.3474 4.3724 14.3516 3.55156 12.0016 3.55156C9.66823 3.55156 7.67656 4.3724 6.02656 6.01406C4.37656 7.65573 3.55156 9.65156 3.55156 12.0016C3.55156 14.3349 4.37656 16.3266 6.02656 17.9766C7.67656 19.6266 9.66823 20.4516 12.0016 20.4516Z" fill="#9D9D9D"/>
</svg>
