<svg width="18" height="18" viewBox="0 0 18 18" fill="none" xmlns="http://www.w3.org/2000/svg">
<g clip-path="url(#clip0_367_13305)">
<path d="M18 8.99996C18 4.02939 13.9706 -4.19617e-05 9 -4.19617e-05C4.02943 -4.19617e-05 0 4.02939 0 8.99996C0 13.4921 3.29117 17.2154 7.59375 17.8906V11.6015H5.30859V8.99996H7.59375V7.01715C7.59375 4.76152 8.93739 3.51558 10.9932 3.51558C11.9779 3.51558 13.0078 3.69136 13.0078 3.69136V5.90621H11.8729C10.7549 5.90621 10.4062 6.59996 10.4062 7.3117V8.99996H12.9023L12.5033 11.6015H10.4062V17.8906C14.7088 17.2154 18 13.4921 18 8.99996Z" fill="#1877F2"/>
<path d="M12.5033 11.6016L12.9023 9H10.4063V7.31174C10.4063 6.60001 10.7549 5.90625 11.8729 5.90625H13.0078V3.69141C13.0078 3.69141 11.9779 3.51562 10.9932 3.51562C8.93739 3.51562 7.59375 4.76156 7.59375 7.01719V9H5.30859V11.6016H7.59375V17.8907C8.05196 17.9626 8.52159 18 9 18C9.47841 18 9.94804 17.9626 10.4063 17.8907V11.6016H12.5033Z" fill="white"/>
</g>
<defs>
<clipPath id="clip0_367_13305">
<rect width="18" height="18" fill="white"/>
</clipPath>
</defs>
</svg>
