<svg
  xmlns="http://www.w3.org/2000/svg"
  width="19"
  height="22"
  viewBox="0 0 19 22"
  fill="none"
>
<path
    d="M13.0556 8.00459C13.5164 6.57756 13.7491 5.3284 13.7491 4.25132C13.7491 1.85265 12.81 0.00390625 11.2491 0.00390625C10.4023 0.00390625 10.1402 0.508146 9.81233 1.75073C9.82947 1.6858 9.64944 2.38469 9.59675 2.57194C9.49581 2.93068 9.32002 3.54143 9.06973 4.40295C9.06304 4.42603 9.05318 4.44778 9.04035 4.46785L6.17359 8.95352C5.49554 10.0145 4.49507 10.83 3.31919 11.2802L2.06196 11.7615C1.26859 12.0653 0.807967 12.895 0.969682 13.729L1.65584 17.2676C1.82298 18.1296 2.47629 18.8156 3.32909 19.0247L11.5786 21.0466C14.1098 21.667 16.6682 20.132 17.3121 17.6067L18.886 11.434C19.2612 9.96233 18.3723 8.46509 16.9007 8.08984C16.6786 8.03323 16.4504 8.00459 16.2212 8.00459H13.0556Z"
    fill="#FF9916"
  />
</svg>
