<svg xmlns="http://www.w3.org/2000/svg" width="22" height="25" viewBox="0 0 22 25" fill="none">
<path d="M12.9164 19.4297H6.41797V20.5726C6.41797 22.4664 7.87269 24.0015 9.66717 24.0015C11.4617 24.0015 12.9164 22.4664 12.9164 20.5726V19.4297Z" stroke="#161719" stroke-width="1.7" stroke-linecap="round" stroke-linejoin="round"/>
<path d="M11.8822 3.77324C11.1809 3.54732 10.4365 3.42578 9.66518 3.42578C5.47773 3.42578 2.08315 7.00783 2.08315 11.4265V15.681C2.08315 15.8842 2.00668 16.079 1.87055 16.2227L1.31724 16.8065C1.11412 17.0209 1 17.3116 1 17.6147V18.2842C1 18.9155 1.48495 19.4272 2.08315 19.4272H17.2472C17.8454 19.4272 18.3304 18.9155 18.3304 18.2842V17.6147C18.3304 17.3116 18.2162 17.0209 18.0131 16.8065L17.4598 16.2227C17.3237 16.079 17.2472 15.8842 17.2472 15.681V11.4265C17.2472 11.2248 17.2402 11.0249 17.2259 10.8278" stroke="#161719" stroke-width="1.7" stroke-linecap="round" stroke-linejoin="round"/>
<path d="M20.7288 6.85775C20.7288 10.2194 18.1574 12.8655 15.0804 12.8655C12.0034 12.8655 9.43203 10.2194 9.43203 6.85775C9.43203 3.49608 12.0034 0.85 15.0804 0.85C18.1574 0.85 20.7288 3.49608 20.7288 6.85775Z" stroke="#F9F9F9" stroke-width="1.7" stroke-linecap="round" stroke-linejoin="round"/>
<path d="M19.4106 6.8609C19.4106 9.38585 17.471 11.4327 15.0784 11.4327C12.6857 11.4327 10.7461 9.38585 10.7461 6.8609C10.7461 4.33594 12.6857 2.28906 15.0784 2.28906C17.471 2.28906 19.4106 4.33594 19.4106 6.8609Z" stroke="#161719" stroke-width="1.7" stroke-linecap="round" stroke-linejoin="round"/>
</svg>