<svg width="20" height="34" viewBox="0 0 20 34" fill="none" xmlns="http://www.w3.org/2000/svg">
<path d="M15.8333 5.99999C15.8333 9.31369 13.2217 12 10 12C6.77834 12 4.16667 9.31369 4.16667 5.99999C4.16667 2.68629 6.77834 0 10 0C13.2217 0 15.8333 2.68629 15.8333 5.99999ZM14.1667 5.99999C14.1667 3.63306 12.3012 1.71428 10 1.71428C7.69881 1.71428 5.83333 3.63306 5.83333 5.99999C5.83333 8.36692 7.69881 10.2857 10 10.2857C12.3012 10.2857 14.1667 8.36692 14.1667 5.99999ZM2.91667 13.7143C1.3058 13.7143 -4.61899e-05 15.0575 1.22538e-09 16.7143L1.19743e-05 17.1429C2.21071e-05 19.1944 1.26887 20.9292 3.07076 22.1086C4.88255 23.2945 7.33462 24 9.99994 24C12.6652 24 15.1174 23.2945 16.9292 22.1086C18.7311 20.9292 20 19.1944 20 17.1429V16.7142C20 15.0574 18.6942 13.7143 17.0833 13.7143H2.91667ZM1.66667 16.7143C1.66665 16.0042 2.2263 15.4285 2.91667 15.4285H17.0833C17.7737 15.4285 18.3333 16.0042 18.3333 16.7142V17.1429C18.3333 18.405 17.5502 19.6702 16.0344 20.6624C14.5285 21.648 12.3972 22.2857 9.99994 22.2857C7.60264 22.2857 5.47142 21.648 3.96556 20.6624C2.44982 19.6702 1.66668 18.405 1.66668 17.1428L1.66667 16.7143Z" fill="#9D9D9D"/>
</svg>
