<svg width="17" height="14" viewBox="0 0 17 14" fill="none" xmlns="http://www.w3.org/2000/svg">
<mask id="path-1-inside-1_5414_13390" fill="white">
<path fill-rule="evenodd" clip-rule="evenodd" d="M8.03245 0L10.5145 4.60778L16.0649 5.35121L12.0487 8.93586L12.9965 14L8.03245 11.6078L3.06839 14L4.01622 8.93586L0 5.35121L5.55042 4.60778L8.03245 0Z"/>
</mask>
<path d="M8.03245 0L15.0756 -3.79388C13.6801 -6.38456 10.9751 -8 8.03245 -8C5.08983 -8 2.38475 -6.38456 0.98926 -3.79388L8.03245 0ZM10.5145 4.60778L3.47129 8.40166C4.68716 10.6589 6.91125 12.1966 9.45243 12.537L10.5145 4.60778ZM16.0649 5.35121L21.392 11.3196C23.7232 9.23893 24.6296 5.99136 23.7128 3.00413C22.7961 0.0169038 20.224 -2.16316 17.1269 -2.57798L16.0649 5.35121ZM12.0487 8.93586L6.72159 2.96742C4.63198 4.83248 3.66994 7.65455 4.18521 10.4076L12.0487 8.93586ZM12.9965 14L9.52347 21.2068C12.241 22.5164 15.4641 22.186 17.8595 20.3523C20.2548 18.5186 21.4149 15.4934 20.86 12.5282L12.9965 14ZM8.03245 11.6078L11.5055 4.40097C9.31089 3.34338 6.754 3.34338 4.55942 4.40097L8.03245 11.6078ZM3.06839 14L-4.79506 12.5282C-5.35003 15.4934 -4.18988 18.5186 -1.79456 20.3523C0.600747 22.186 3.82389 22.5164 6.54142 21.2068L3.06839 14ZM4.01622 8.93586L11.8797 10.4076C12.395 7.65455 11.4329 4.83248 9.3433 2.96742L4.01622 8.93586ZM0 5.35121L-1.06204 -2.57798C-4.15912 -2.16316 -6.73121 0.0169038 -7.64796 3.00413C-8.5647 5.99136 -7.6583 9.23893 -5.32708 11.3196L0 5.35121ZM5.55042 4.60778L6.61246 12.537C9.15364 12.1966 11.3777 10.6589 12.5936 8.40166L5.55042 4.60778ZM0.98926 3.79388L3.47129 8.40166L17.5577 0.813901L15.0756 -3.79388L0.98926 3.79388ZM9.45243 12.537L15.0028 13.2804L17.1269 -2.57798L11.5765 -3.32141L9.45243 12.537ZM10.7378 -0.617226L6.72159 2.96742L17.3757 14.9043L21.392 11.3196L10.7378 -0.617226ZM4.18521 10.4076L5.13304 15.4718L20.86 12.5282L19.9121 7.4641L4.18521 10.4076ZM16.4695 6.79319L11.5055 4.40097L4.55942 18.8146L9.52347 21.2068L16.4695 6.79319ZM4.55942 4.40097L-0.404629 6.79319L6.54142 21.2068L11.5055 18.8146L4.55942 4.40097ZM10.9318 15.4718L11.8797 10.4076L-3.84723 7.4641L-4.79506 12.5282L10.9318 15.4718ZM9.3433 2.96742L5.32708 -0.617226L-5.32708 11.3196L-1.31086 14.9043L9.3433 2.96742ZM1.06204 13.2804L6.61246 12.537L4.48838 -3.32141L-1.06204 -2.57798L1.06204 13.2804ZM12.5936 8.40166L15.0756 3.79388L0.98926 -3.79388L-1.49277 0.813901L12.5936 8.40166Z" fill="#FF9916" mask="url(#path-1-inside-1_5414_13390)"/>
</svg>
