<svg width="24" height="35" viewBox="0 0 24 35" fill="none" xmlns="http://www.w3.org/2000/svg">
<path d="M14.2984 22.1516V20.4516H19.4484V9.75156H4.54844V15.1516H2.84844V5.05156C2.84844 4.5849 3.01927 4.1849 3.36094 3.85156C3.7026 3.51823 4.09844 3.35156 4.54844 3.35156H6.12344V1.85156H7.84844V3.35156H16.1484V1.85156H17.8734V3.35156H19.4484C19.9151 3.35156 20.3151 3.51823 20.6484 3.85156C20.9818 4.1849 21.1484 4.5849 21.1484 5.05156V20.4516C21.1484 20.9016 20.9818 21.2974 20.6484 21.6391C20.3151 21.9807 19.9151 22.1516 19.4484 22.1516H14.2984ZM7.99844 23.8016L6.79844 22.6016L9.52344 19.8516H1.14844V18.1516H9.52344L6.79844 15.4016L7.99844 14.2016L12.7984 19.0016L7.99844 23.8016ZM4.54844 8.25156H19.4484V5.05156H4.54844V8.25156ZM4.54844 8.25156V5.05156V8.25156Z" fill="#9D9D9D"/>
</svg>
