<svg width="22" height="18" viewBox="0 0 22 18" fill="none" xmlns="http://www.w3.org/2000/svg">
<g clip-path="url(#clip0_367_13376)">
<path d="M19.5477 4.52628C19.5609 4.71775 19.5609 4.90922 19.5609 5.10246C19.5609 10.9904 15.0872 17.781 6.90692 17.781V17.7775C4.49043 17.781 2.12413 17.0875 0.0898438 15.7798C0.441221 15.8222 0.79436 15.8433 1.14838 15.8442C3.15097 15.846 5.09631 15.1728 6.67179 13.933C4.76871 13.8969 3.09989 12.6536 2.5169 10.8386C3.18355 10.9675 3.87045 10.941 4.52477 10.7619C2.44997 10.3419 0.957279 8.5154 0.957279 6.39422C0.957279 6.37481 0.957279 6.35628 0.957279 6.33775C1.57549 6.68275 2.26768 6.87422 2.97572 6.8954C1.02157 5.58687 0.419205 2.98216 1.59927 0.945691C3.85724 3.72952 7.18872 5.42187 10.765 5.60099C10.4066 4.05334 10.8962 2.43157 12.0516 1.34363C13.8429 -0.343427 16.6601 -0.256956 18.3439 1.53687C19.3399 1.3401 20.2945 0.973927 21.1681 0.455103C20.8361 1.48657 20.1413 2.36275 19.2131 2.91952C20.0946 2.8154 20.9558 2.57893 21.7669 2.21804C21.1698 3.11451 20.4178 3.8954 19.5477 4.52628Z" fill="#1D9BF0"/>
</g>
<defs>
<clipPath id="clip0_367_13376">
<rect width="21.84" height="18" fill="white"/>
</clipPath>
</defs>
</svg>
